<svg xmlns="http://www.w3.org/2000/svg" width="25.103" height="24.67" viewBox="0 0 25.103 24.67"><defs><style>.a{fill:#707070;}.b{fill:#fff;stroke:#707070;stroke-width:0.75px;}.c{stroke:none;}.d{fill:none;}</style></defs><g transform="translate(0 -0.5)"><path class="a" d="M18.567,2.231A2.168,2.168,0,0,0,16.447.5a.433.433,0,0,0,0,.866,1.3,1.3,0,1,1,0,2.6.433.433,0,0,0,0,.866A2.168,2.168,0,0,0,18.567,3.1h5.67v3.9H.866V3.1H8.223a.433.433,0,1,0,0-.866H7.437A1.3,1.3,0,1,1,8.656,3.962a.433.433,0,1,0,0,.866,2.164,2.164,0,1,0-2.12-2.6H0V25.17H25.1V2.231ZM24.237,24.3H.866V7.858H24.237Z"/><path class="a" d="M25.433,1.366a1.3,1.3,0,0,1,0,2.6.433.433,0,1,0,0,.866,2.164,2.164,0,0,0,0-4.328.433.433,0,1,0,0,.866Z" transform="translate(-14.18)"/><path class="a" d="M31.433,1.366a1.3,1.3,0,0,1,0,2.6.433.433,0,1,0,0,.866,2.164,2.164,0,0,0,0-4.328.433.433,0,1,0,0,.866Z" transform="translate(-17.583)"/><g class="b" transform="translate(3 10.172)"><rect class="c" width="5" height="5"/><rect class="d" x="0.375" y="0.375" width="4.25" height="4.25"/></g><g class="b" transform="translate(10 10.172)"><rect class="c" width="5" height="5"/><rect class="d" x="0.375" y="0.375" width="4.25" height="4.25"/></g><g class="b" transform="translate(17 10.172)"><rect class="c" width="5" height="5"/><rect class="d" x="0.375" y="0.375" width="4.25" height="4.25"/></g><g class="b" transform="translate(3 17.172)"><rect class="c" width="5" height="5"/><rect class="d" x="0.375" y="0.375" width="4.25" height="4.25"/></g><g class="b" transform="translate(10 17.172)"><rect class="c" width="5" height="5"/><rect class="d" x="0.375" y="0.375" width="4.25" height="4.25"/></g><g class="b" transform="translate(17 17.172)"><rect class="c" width="5" height="5"/><rect class="d" x="0.375" y="0.375" width="4.25" height="4.25"/></g></g></svg>